<svg width="75" height="36" viewBox="0 0 75 36" fill="none" xmlns="http://www.w3.org/2000/svg">
<g clip-path="url(#clip0_3_2571)">
<path d="M5.50575 7.73386C11.3553 12.6712 18.4339 15.9195 25.968 17.0901C33.9044 18.3233 42.8974 18.2652 50.0291 16.5227C54.9148 15.3252 55.6089 15.1063 56.8336 14.3422C54.7246 11.7239 47.814 7.2915 48.2075 1.91636C48.2915 0.736768 49.6445 0.124635 50.5774 0.835068C56.4666 5.32553 68.7184 12.6846 73.9003 17.2867C74.444 17.7693 75.0365 18.359 75.0011 19.0918C74.9701 19.8023 74.3645 20.325 73.8074 20.7584C66.7464 26.214 59.3318 31.205 51.6341 35.6909C50.5774 36.3075 49.1714 35.9768 48.5966 34.8866C48.0925 33.9394 48.632 33.2067 49.1404 32.5543C51.5456 29.4668 53.9509 26.3794 56.3561 23.2874C43.9939 28.5643 29.5493 28.3364 17.187 23.1489C10.2499 20.2401 4.48442 14.999 1.10206 8.22981C-0.710713 4.59276 -0.922939 2.30955 5.50575 7.73386Z" fill="#FBC8B8"/>
</g>
<defs>
<clipPath id="clip0_3_2571">
<rect width="75" height="36" fill="white"/>
</clipPath>
</defs>
</svg>
