<svg width="300" height="395" viewBox="0 0 300 395" fill="none" xmlns="http://www.w3.org/2000/svg">
<g clip-path="url(#clip0_3_2630)">
<path d="M-166 507.954C-116.21 487.034 -70.6912 457.822 -31.5588 421.676C-9.43398 401.22 10.4691 378.709 29.8545 355.814C43.5459 339.663 57.0918 323.094 66.7583 304.421C75.6862 287.156 81.1186 268.482 85.9518 249.798C94.1566 218.186 100.853 186.256 106.041 154.006C112.189 115.707 116.097 76.037 105.64 38.6172C102.08 25.8692 95.8743 12.4418 83.509 6.66647C65.7754 -1.63171 44.8661 9.59589 30.3896 22.472C9.73042 40.8505 -6.53751 63.25 -22.2296 85.6997C-75.5236 161.937 -125.334 243.727 -139.484 334.517" fill="#194429"/>
<path d="M-36.4154 346.964C-22.8637 327.658 -10.3375 307.712 1.1631 287.128C12.6637 266.544 23.0747 245.452 32.3961 223.85C41.7215 202.338 49.9223 180.42 56.9987 158.094C64.0751 135.769 69.9921 113.184 74.7498 90.3389C79.5074 67.4308 83.0747 44.3333 85.4516 21.0464C85.7424 18.1504 86.0177 15.2488 86.2775 12.3416C86.6032 8.67151 80.6241 8.70493 80.2984 12.3416C78.2434 35.3946 74.9902 58.3083 70.5388 81.0829C66.0952 103.787 60.4962 126.249 53.7416 148.471C46.9871 170.692 39.0945 192.616 30.0638 214.244C21.1185 235.637 11.0797 256.566 -0.0524864 277.031C-11.1847 297.496 -23.3503 317.423 -36.5492 336.812C-38.2126 339.247 -39.8916 341.675 -41.586 344.096C-43.738 347.159 -38.5558 350.022 -36.4154 346.964Z" fill="#153A23"/>
<path d="M74.2554 91.4526C81.2755 80.3141 82.5144 77.6297 91.419 67.8612C92.4717 66.6973 104.372 54.2778 103.174 53.1361C102.08 52.0891 92.6229 59.4628 91.5411 60.6323C82.3108 70.7572 76.355 77.0115 69.0789 88.5677C67.0956 91.731 72.2662 94.6048 74.2554 91.4526Z" fill="#153A23"/>
<path d="M56.5859 160.244C64.8216 144.973 68.166 139.231 78.5828 125.308C79.5308 124.05 92.5766 109.948 91.2738 109.219C89.7615 108.378 83.1311 114.036 81.9271 115.1C61.6285 133.256 59.6569 142.072 51.4153 157.348C49.653 160.634 54.812 163.53 56.5859 160.244Z" fill="#153A23"/>
<path d="M39.1255 207.733C50.0212 190.015 61.8126 172.847 74.4997 156.229C78.0592 151.573 77.9894 151.528 81.6885 146.972C82.6772 145.753 89.0344 136.569 87.7955 135.383C86.7602 134.397 76.6284 144.037 75.6338 145.268C62.2333 161.77 55.2015 171.978 43.6214 189.677C40.3178 194.697 37.0995 199.758 33.9665 204.859C31.989 208.045 37.177 210.924 39.1255 207.733Z" fill="#153A23"/>
<path d="M20.1007 248.717C35.2694 237.579 54.7013 220.247 67.0666 206.28C86.6847 184.108 68.8115 195.453 62.8266 202.231C50.7987 215.803 36.2989 227.214 21.5315 238.035C20.2519 238.971 19.5773 240.508 20.4671 241.934C21.2058 243.142 18.7804 246.228 20.0716 245.275L20.1007 248.717Z" fill="#153A23"/>
<path d="M-87.2433 421.949C-61.9951 416.697 -38.6721 405.441 -17.9723 390.811C2.84977 376.108 20.9382 358.064 36.9444 338.644C56.0332 315.459 72.1964 290.247 88.412 265.185C103.895 241.238 119.238 216.805 138.001 195.046C153.077 177.57 171.869 160.985 195.116 154.563C197.986 153.777 200.898 153.141 203.84 152.659L199.821 150.804C203.695 157.487 197.861 164.828 192.976 169.612C189.405 173.103 185.368 176.128 181.471 179.269L167.559 190.468C149.409 205.09 131.25 219.711 113.084 234.332C102.894 242.541 97.5435 247.369 87.3476 255.573C85.9634 256.687 80.9207 262.128 81.9211 263.515C82.8575 264.801 85.0328 265.676 86.5741 264.695C110.341 249.508 139.377 243.844 167.454 248.918C166.71 246.879 165.965 244.847 165.221 242.791C141.371 263.065 113.995 279.179 84.3349 290.403C76.0434 293.533 67.5935 296.263 59.0169 298.584L63.4256 302.176C67.8343 279.047 64.647 254.782 54.8699 233.246C52.1218 227.204 48.8352 221.399 45.0464 215.898C43.2724 213.319 39.6257 213.436 38.317 216.371C28.9114 237.73 25.4738 261.065 28.3422 284.082C30.7734 303.686 39.1894 326.965 62.3612 330.591C73.2317 332.261 84.1255 328.92 94.9843 330.19C101.894 330.986 110.229 334.645 112.805 341.033C113.794 343.495 113.317 347.009 111.799 349.248C111.009 350.366 109.997 351.326 108.821 352.071C107.414 352.917 105.888 353.567 104.29 354.004C100.404 354.996 96.3744 355.372 92.3612 355.118C88.2899 354.945 84.2185 354.561 80.438 353.447C80.1704 353.363 79.9203 353.269 79.6644 353.168C79.0828 352.946 80.1006 353.464 79.3911 353.007C78.7746 352.623 78.1697 352.238 77.588 351.815C77.0064 351.392 77.588 351.86 77.1402 351.464C76.8785 351.23 76.6225 351.002 76.3666 350.757C75.6978 350.122 75.058 349.454 74.4415 348.769C71.9181 345.882 69.5647 342.862 67.3922 339.724C63.1929 333.871 59.0576 327.037 52.8517 322.905C51.5655 322.031 50.1338 321.372 48.6175 320.956C44.0983 319.809 41.7718 326.43 46.3259 327.6C46.6284 327.678 46.9075 327.773 47.2274 327.867C47.5473 327.962 48.286 328.385 47.5066 327.962C48.1315 328.297 48.7337 328.669 49.3096 329.076C50.449 329.953 51.5005 330.93 52.4504 331.994C55.0845 334.95 57.5242 338.06 59.7556 341.306C64.0363 347.265 68.2588 354.388 74.709 358.465C77.9952 360.553 82.0723 361.06 85.8994 361.589C90.4076 362.218 94.9771 362.341 99.5152 361.957C107.809 361.233 116.562 357.835 119.628 349.816C122.85 341.384 118.086 333.141 110.717 328.485C107.021 326.179 102.896 324.573 98.5671 323.757C93.2104 322.738 87.8304 323.044 82.4155 323.456C71.702 324.275 60.4244 325.539 51.4209 318.728C43.7377 312.908 39.7885 303.257 37.5958 294.391C32.1344 272.236 34.1991 248.105 41.9928 226.713C42.9932 223.98 44.0847 221.279 45.2674 218.61L38.538 219.083C51.5098 237.974 58.3093 260.138 58.0688 282.745C57.9838 289.155 57.3359 295.547 56.132 301.853C55.7191 304.025 58.4585 306.008 60.5407 305.451C92.223 296.855 122.078 282.986 148.738 264.478C156.123 259.354 163.236 253.878 170.048 248.071C172.671 245.843 170.787 242.502 167.821 241.945C145.201 237.902 121.442 240.748 100.353 249.541C94.3969 252.031 91.3317 253.44 85.9169 256.91C87.2662 258.825 85.9866 262.301 87.3302 264.216C106.225 248.994 125.124 233.771 144.027 218.549L172.369 195.715L186.816 184.08C190.806 180.861 194.959 177.771 198.519 174.123C205.335 167.189 211.785 157.142 206.307 147.674C205.929 146.996 205.336 146.451 204.614 146.118C203.891 145.784 203.076 145.68 202.288 145.82C177.592 149.924 156.834 164.755 140.205 182.02C120.919 202.097 105.616 225.527 90.5698 248.572C74.0925 273.873 58.1619 299.537 39.7536 323.573C24.1778 343.896 6.65357 362.898 -13.7555 378.865C-33.1816 394.063 -55.3821 406.444 -79.6357 412.96C-82.6427 413.767 -85.6845 414.48 -88.7322 415.121C-93.3445 416.056 -91.8439 422.901 -87.2433 421.949Z" fill="#1F7A36"/>
<path d="M-3.99573 477.385C3.79799 492.132 11.8941 506.679 24.2012 517.428C39.6956 530.961 58.2319 541.888 79.8507 543.809C101.47 545.73 126.537 537.293 142.468 518.541C145.679 514.76 148.61 510.266 148.802 505.671C149.209 495.975 138.414 492.583 130.132 489.308C121.85 486.034 114.399 475.274 121.803 467.884L169.077 482.921C181.216 486.78 194.04 490.662 207.551 487.482C221.062 484.302 235.068 471.331 234.783 457.714C234.201 429.027 182.437 438.974 175.178 412.414C187.433 407.118 200.188 409.568 211.733 412.692C223.278 415.817 235.213 419.543 247.794 416.513C260.374 413.483 273.466 400.73 272.082 388.282C269.831 368.194 234.981 366.145 239.407 345.221C240.983 337.764 247.422 331.771 251.691 325.049C261.078 310.241 266.749 279.014 246.979 266.823C234.422 259.042 211 262.869 199.496 276.235C187.346 290.319 185.7 309.16 177.063 332.829C172.991 344.051 161.156 338.087 156.747 328.697C155.351 325.723 155.531 322.014 155.537 318.483C155.537 301.909 148.017 283.909 131.935 283.692C115.94 283.475 101.702 301.296 97.1307 317.893C92.5591 334.489 94.083 351.23 90.3257 367.916C89.5696 371.257 88.4878 374.838 85.9868 377.433C79.2051 384.473 68.6662 378.581 66.1361 370.411C63.6061 362.241 64.8565 352.294 60.634 345.132C55.7076 336.778 44.1218 334.656 33.8387 338.07C23.5556 341.484 14.5405 349.398 7.14812 358.103C-7.89259 375.857 -17.6347 397.973 -19.967 419.671C-19.967 419.687 -16.5646 453.615 -3.99573 477.385Z" fill="#198C36"/>
<path d="M129.434 106.679C126.747 98.8821 123.118 84.6861 121.937 76.5438C121.722 74.9622 121.937 72.8124 123.577 72.5507C125.078 72.2889 126.072 73.9653 126.596 75.3353C129.868 83.9639 133.116 92.6074 136.338 101.266C143.264 96.0192 151.421 92.4675 160.103 90.9181C160.345 90.8788 160.594 90.9035 160.823 90.9895C161.052 91.0754 161.252 91.2194 161.402 91.4059C161.552 91.5925 161.647 91.8146 161.675 92.0485C161.703 92.2824 161.664 92.5192 161.563 92.7336C159.162 97.7841 155.18 101.994 150.169 104.78C148.354 105.777 146.249 106.813 145.743 108.751C145.417 110.004 145.917 111.29 146.365 112.499C149.187 119.985 150.959 127.796 151.634 135.728C151.649 136.035 151.567 136.339 151.399 136.6C151.231 136.861 150.985 137.068 150.692 137.193C150.399 137.318 150.074 137.356 149.759 137.301C149.443 137.247 149.152 137.102 148.924 136.887C143.562 131.936 141.817 123.704 137.414 117.617C136.985 116.88 136.32 116.295 135.518 115.946C134.488 115.601 133.348 115.946 132.33 116.336C124.398 119.183 116.254 121.456 107.966 123.136C105.727 123.576 102.342 123.008 102.767 120.908C102.953 120.264 103.348 119.692 103.895 119.277C107.507 115.962 111.761 113.355 116.417 111.602L129.434 106.679Z" fill="#FBC8B8"/>
<path d="M160.789 41.4408C155.525 46.2081 156.823 56.2884 165.838 53.8714C179.139 50.2903 169.798 33.2763 160.789 41.4408Z" fill="#F7BC28"/>
<path d="M273.629 323.328C268.395 328.101 269.669 338.176 278.678 335.759C291.974 332.178 282.668 315.169 273.629 323.328Z" fill="#F7BC28"/>
<path d="M288.519 348.574C286.041 350.696 286.658 355.173 290.898 354.104C297.162 352.533 292.759 344.948 288.519 348.574Z" fill="#F7BC28"/>
</g>
<defs>
<clipPath id="clip0_3_2630">
<rect width="300" height="400" fill="white"/>
</clipPath>
</defs>
</svg>
