<svg width="62" height="75" viewBox="0 0 62 75" fill="none" xmlns="http://www.w3.org/2000/svg">
<g clip-path="url(#clip0_3_2453)">
<path d="M4.60606 13.9125C1.95347 15.4449 0.263427 18.2487 0.140311 21.342C-0.279402 31.8026 -0.67673 53.9098 13.7782 65.1308L26.1681 73.4913C28.9942 75.3983 32.6485 75.4949 35.5809 73.7523C39.4142 71.4764 44.546 68.0482 47.5119 64.4895C47.6463 64.3249 47.7861 64.1716 47.9316 64.0184C49.8119 62.0829 63.9702 46.5994 61.771 21.0696C61.5191 18.1466 59.8795 15.5243 57.3723 14.0543L35.4354 1.21C32.7044 -0.390574 29.3411 -0.401925 26.6046 1.1873L4.60606 13.9125Z" fill="#F7BC28"/>
<path d="M11.4218 19.7631C9.45755 20.8983 8.20398 22.9813 8.10886 25.2743C7.79546 33.0331 7.50446 49.4248 18.2211 57.7513L27.4101 63.9549C29.5086 65.3682 32.2171 65.4419 34.3885 64.1479C37.2314 62.4621 41.0367 59.9194 43.236 57.2801C43.3368 57.161 43.4375 57.0418 43.5494 56.9339C44.9428 55.4979 55.4021 43.9023 53.8128 25.0813C53.7121 23.861 50.7237 20.2115 49.7052 19.3828L34.2878 10.3413C32.2619 9.15504 29.7717 9.14936 27.7403 10.3243L11.4218 19.7631Z" fill="#E48929"/>
<path d="M30.9973 9.44458V37.5H53.1637C53.1637 37.5 54.7419 29.6731 53.8185 25.0814C53.8185 25.0814 53.5611 21.9256 49.7109 19.3829L34.2879 10.3413C34.2879 10.3413 32.7209 9.38781 30.9973 9.44458Z" fill="#FBFAF7"/>
<path d="M30.9974 37.5L30.9918 65.0616C30.9918 65.0616 29.2122 65.1639 26.9793 63.6541L19.5923 58.6707C19.5923 58.6707 13.3303 54.885 11.2933 48.6189C11.2933 48.6189 8.72461 42.8579 8.37207 36.9835L30.9974 37.5Z" fill="#FBFAF7"/>
</g>
<defs>
<clipPath id="clip0_3_2453">
<rect width="62" height="75" fill="white"/>
</clipPath>
</defs>
</svg>
